<mxfile host="www.draw.io" modified="2019-11-15T07:24:29.533Z" agent="Mozilla/5.0 (Macintosh; Intel Mac OS X 10_14_0) AppleWebKit/537.36 (KHTML, like Gecko) Chrome/78.0.3904.87 Safari/537.36" etag="9M-SFEgEzXZoDKB0pPzG" version="12.2.6" type="github" pages="1">
  <diagram id="E6mZis0rzN9z0cpXUbIy" name="第 1 页">
    <mxGraphModel dx="1666" dy="793" grid="1" gridSize="10" guides="1" tooltips="1" connect="1" arrows="1" fold="1" page="1" pageScale="1" pageWidth="3300" pageHeight="4681" math="0" shadow="0">
      <root>
        <mxCell id="0"/>
        <mxCell id="1" parent="0"/>
        <mxCell id="1ESeGN69Pckd7pXNOVfS-1" value="用户" style="shape=umlActor;verticalLabelPosition=bottom;labelBackgroundColor=#ffffff;verticalAlign=top;html=1;outlineConnect=0;" parent="1" vertex="1">
          <mxGeometry x="170" y="340" width="30" height="60" as="geometry"/>
        </mxCell>
        <mxCell id="1ESeGN69Pckd7pXNOVfS-6" value="电饱饱主机" style="swimlane;" parent="1" vertex="1">
          <mxGeometry x="320" y="310" width="130" height="140" as="geometry"/>
        </mxCell>
      </root>
    </mxGraphModel>
  </diagram>
</mxfile>
